<svg xmlns="http://www.w3.org/2000/svg" viewBox="0 0 100 100">
  <defs>
    <linearGradient id="primaryGradient" x1="0%" y1="0%" x2="100%" y2="100%">
      <stop offset="0%" stop-color="hsl(265, 90%, 60%)" />
      <stop offset="100%" stop-color="hsl(320, 80%, 60%)" />
    </linearGradient>
  </defs>
  
  <!-- Rounded Rect Background matching Navbar logo -->
  <rect x="0" y="0" width="100" height="100" rx="20" fill="url(#primaryGradient)" />
  
  <!-- Wallet Icon (Lucide Style) -->
  <g transform="translate(25, 25) scale(2)">
      <path d="M20 12V8H6a2 2 0 0 1-2-2c0-1.1.9-2 2-2h12v4" fill="none" stroke="white" stroke-width="2" stroke-linecap="round" stroke-linejoin="round"/>
      <path d="M4 6v12a2 2 0 0 0 2 2h14a2 2 0 0 0 2-2V6a2 2 0 0 0-2-2H6a2 2 0 0 0-2 2Z" fill="none" stroke="white" stroke-width="2" stroke-linecap="round" stroke-linejoin="round"/>
      <path d="M16 12h2" fill="none" stroke="white" stroke-width="2" stroke-linecap="round" stroke-linejoin="round"/>
  </g>
</svg>
