<svg xmlns="http://www.w3.org/2000/svg" viewBox="0 0 100 100">
  <defs>
    <linearGradient id="grad" x1="0%" y1="0%" x2="100%" y2="100%">
      <stop offset="0%" style="stop-color:#8b5cf6;stop-opacity:1" />
      <stop offset="100%" style="stop-color:#6d28d9;stop-opacity:1" />
    </linearGradient>
  </defs>
  <rect x="10" y="10" width="80" height="80" rx="20" fill="url(#grad)" />
  <!-- Simple Piggy Bank Silhouette -->
  <path d="M70 45 c0-15-10-25-25-25 -5 0-10 2-15 5 -2-1-4-2-6-2 -5 0-8 4-8 8 0 2 1 4 3 5 -5 5-8 12-8 20 0 12 8 20 20 20 h25 c8 0 14-6 14-14 0-1 0-2 0-3 z M48 35 a3 3 0 1 1 0 6 3 3 0 0 1 0-6 z" fill="white" />
  <!-- Coin slot -->
  <rect x="42" y="28" width="10" height="4" rx="2" fill="rgba(255,255,255,0.7)" />
</svg>
