<svg xmlns="http://www.w3.org/2000/svg" viewBox="0 0 100 100">
  <!-- Coin -->
  <circle cx="50" cy="30" r="14" fill="#FFD700" stroke="black" stroke-width="3" />
  <circle cx="50" cy="30" r="11" fill="none" stroke="#F0E68C" stroke-width="1" />
  <text x="50" y="36" font-family="sans-serif" font-weight="bold" font-size="20" text-anchor="middle" fill="black">$</text>
  
  <!-- Piggy Body -->
  <path d="M75 50 
           c0-15-10-25-25-25 
           -8 0-15 4-20 10 
           -2 0-4-0-6-0 
           -4 0-8 3-8 8 
           0 3 2 5 4 6 
           -3 5-5 12-5 20 
           0 12 8 18 18 18 
           h5 v5 a3 3 0 0 0 6 0 v-5 h20 v5 a3 3 0 0 0 6 0 v-5
           h5 c10 0 15-8 15-18
           0-2 0-4-1-6 z" 
        fill="#FF9999" stroke="black" stroke-width="3" />
        
  <!-- Snout -->
  <ellipse cx="85" cy="60" rx="4" ry="6" fill="#FF7777" stroke="black" stroke-width="2" />
  
  <!-- Eye -->
  <circle cx="70" cy="50" r="3" fill="black" />
  
  <!-- Ear -->
  <path d="M60 30 c5-5 12-2 12 5 c0 2-4 5-8 5 z" fill="#FF9999" stroke="black" stroke-width="3" />
  
  <!-- Coin Slot -->
  <line x1="40" y1="35" x2="60" y2="35" stroke="black" stroke-width="3" stroke-linecap="round" />
</svg>
